<svg xmlns="http://www.w3.org/2000/svg" version="1.1" xmlns:xlink="http://www.w3.org/1999/xlink" xmlns:svgjs="http://svgjs.dev/svgjs" width="954" height="856"><svg width="954" height="856" viewBox="0 0 954 856" fill="none" xmlns="http://www.w3.org/2000/svg">
<path d="M75.5018 821.5C132.187 800.587 256 728.5 348.002 646.5C413.347 588.259 427.504 546.5 422.002 508.5C416.5 470.501 383 447.501 232.5 432.001C81.9998 416.501 23.4995 410.501 15.9998 360.001C11.729 331.243 45.9985 219 513.5 79.5002C671.277 36.8192 856 -27.0001 915 56.4999C974 140 905.12 265.602 871.5 307.5C795.757 401.892 706 486.859 668.502 481C631.004 475.141 711.5 436.5 781 432.001C850.5 427.501 891.504 442.001 909.502 481C927.5 520 925 587 765 719.5C605 852 504 856 473.502 825C459.814 811.087 411 775 560 486C709 197 791 105.5 791 105.5" stroke="black" stroke-width="30" stroke-linecap="round"></path>
</svg><style>@media (prefers-color-scheme: light) { :root { filter: none; } }
@media (prefers-color-scheme: dark) { :root { filter: invert(100%); } }
</style></svg>
